<?xml version="1.0" encoding="utf-8"?>
<!-- Generator: Adobe Illustrator 16.0.0, SVG Export Plug-In . SVG Version: 6.00 Build 0)  -->
<!DOCTYPE svg PUBLIC "-//W3C//DTD SVG 1.1//EN" "http://www.w3.org/Graphics/SVG/1.1/DTD/svg11.dtd">
<svg version="1.1" id="Layer_1" xmlns="http://www.w3.org/2000/svg" xmlns:xlink="http://www.w3.org/1999/xlink" x="0px" y="0px"
	 width="1263.906px" height="334.82px" viewBox="-160.531 144.929 1263.906 334.82"
	 enable-background="new -160.531 144.929 1263.906 334.82" xml:space="preserve">
<g>
	
		<linearGradient id="SVGID_1_" gradientUnits="userSpaceOnUse" x1="-1.6833" y1="764.1589" x2="2.9683" y2="770.6367" gradientTransform="matrix(38.4906 0 0 38.4906 -10.3677 -29248.8125)">
		<stop  offset="0" style="stop-color:#04BEFE"/>
		<stop  offset="0.5044" style="stop-color:#19A6F1"/>
		<stop  offset="1" style="stop-color:#318BE3"/>
	</linearGradient>
	<path fill="url(#SVGID_1_)" d="M125.254,233.361l-68.543-11.255l-30.464-69.137c-1.523-4.823-6.092-8.04-12.185-8.04
		c-4.569,0-9.14,3.216-12.186,8.04l-30.463,69.137l-67.02,11.255c-4.57,0-9.14,4.823-10.663,9.646
		c-1.523,4.824,0,11.255,3.047,14.471l50.265,53.059l-12.186,75.567c-1.523,4.824,1.523,11.255,4.57,14.472
		c4.569,3.215,9.139,3.215,13.708,1.607l60.928-35.373l60.927,35.373c1.524,1.607,4.569,1.607,6.094,1.607
		c3.046,0,6.092-1.607,7.615-3.215c4.57-3.217,6.093-8.04,4.57-14.472l-12.185-75.567l50.265-53.059
		c3.046-3.216,4.57-9.646,3.046-14.471C134.393,236.576,129.823,233.361,125.254,233.361z"/>
</g>
<polygon fill="#FFFFFF" stroke="#000000" stroke-miterlimit="10" points="122.011,144.929 122.011,144.929 122.011,144.929 "/>
<linearGradient id="SVGID_2_" gradientUnits="userSpaceOnUse" x1="-160.531" y1="360.0544" x2="1103.3752" y2="360.0544">
	<stop  offset="0" style="stop-color:#115BC4"/>
	<stop  offset="0.168" style="stop-color:#1062C8"/>
	<stop  offset="0.4206" style="stop-color:#0E77D4"/>
	<stop  offset="0.7249" style="stop-color:#0999E8"/>
	<stop  offset="1" style="stop-color:#05BDFD"/>
</linearGradient>
<path fill="url(#SVGID_2_)" d="M-160.531,401.5V288.219h35c13.176,0,23.137,2.41,29.883,7.227
	c6.744,4.818,10.117,11.967,10.117,21.445c0,5.781-1.537,10.691-4.609,14.727c-3.074,4.037-7.709,7.175-13.906,9.414
	c6.875,1.563,12.266,4.779,16.172,9.648c3.906,4.871,5.859,10.82,5.859,17.852c0,10.886-4.023,19.102-12.07,24.648
	s-19.961,8.32-35.742,8.32H-160.531z M-135.922,332.984h8.984c5.313,0,9.465-1.158,12.461-3.477
	c2.994-2.317,4.492-5.586,4.492-9.805s-1.42-7.317-4.258-9.297c-2.839-1.979-7.279-2.969-13.32-2.969h-8.359V332.984z
	 M-135.922,381.031h11.25c5.416,0,9.674-1.328,12.773-3.984c3.098-2.656,4.648-6.301,4.648-10.938c0-4.531-1.511-8.033-4.531-10.508
	c-3.021-2.473-7.318-3.711-12.891-3.711h-11.25V381.031z M-67.64,304.859c0-3.75,1.301-6.926,3.906-9.531
	c2.604-2.604,5.781-3.906,9.531-3.906c3.801,0,6.992,1.289,9.57,3.867s3.867,5.769,3.867,9.57c0,3.75-1.303,6.953-3.906,9.609
	c-2.605,2.656-5.781,3.984-9.531,3.984c-3.646,0-6.797-1.34-9.453-4.023C-66.312,311.748-67.64,308.558-67.64,304.859z
	 M-41.703,401.5h-24.766v-70.391l24.766-3.359V401.5z M47.438,401.5H22.985v-40.313c0-3.594-0.77-6.354-2.305-8.281
	c-1.537-1.926-3.711-2.891-6.523-2.891c-4.012,0-7.148,1.459-9.414,4.375c-2.266,2.917-3.398,7.058-3.398,12.422V401.5h-24.453
	v-70.391h22.734v11.797c4.063-4.791,8.086-8.281,12.07-10.469s8.32-3.281,13.008-3.281c5.156,0,9.414,1.068,12.773,3.203
	c3.359,2.136,6.211,5.547,8.555,10.234c3.438-4.479,7.199-7.838,11.289-10.078c4.088-2.239,8.527-3.359,13.32-3.359
	c7.813,0,13.58,2.201,17.305,6.602c3.723,4.402,5.586,11.211,5.586,20.43V401.5H69.078v-40.313c0-3.594-0.77-6.354-2.305-8.281
	c-1.537-1.926-3.711-2.891-6.523-2.891c-4.063,0-7.215,1.459-9.453,4.375c-2.24,2.917-3.359,7.058-3.359,12.422V401.5z
	 M111.266,404.859V290.015l24.453-3.359v47.5c3.125-1.614,6.133-2.825,9.023-3.633c2.891-0.807,5.689-1.211,8.398-1.211
	c9.582,0,17.344,3.398,23.281,10.195s8.906,15.664,8.906,26.602c0,11.563-3.529,20.886-10.586,27.969
	c-7.059,7.084-16.342,10.625-27.852,10.625c-1.459,0-3.1-0.092-4.922-0.273c-1.824-0.184-3.881-0.457-6.172-0.82l-8.906-2.109
	L111.266,404.859z M135.719,385.328c1.77,0.469,3.268,0.808,4.492,1.016c1.223,0.209,2.33,0.313,3.32,0.313
	c4.791,0,8.801-1.953,12.031-5.859c3.229-3.906,4.844-8.854,4.844-14.844c0-5.416-1.342-9.778-4.023-13.086
	c-2.684-3.307-6.16-4.961-10.43-4.961c-1.199,0-2.645,0.3-4.336,0.898c-1.693,0.6-3.66,1.523-5.898,2.773V385.328z M198.297,304.859
	c0-3.75,1.301-6.926,3.906-9.531c2.604-2.604,5.781-3.906,9.531-3.906c3.801,0,6.992,1.289,9.57,3.867s3.867,5.769,3.867,9.57
	c0,3.75-1.303,6.953-3.906,9.609c-2.605,2.656-5.781,3.984-9.531,3.984c-3.646,0-6.797-1.34-9.453-4.023
	C199.625,311.748,198.297,308.558,198.297,304.859z M224.235,401.5h-24.766v-70.391l24.766-3.359V401.5z M267.125,401.5h-24.453
	v-70.391h22.578v11.797c3.75-4.635,7.734-8.086,11.953-10.352s8.801-3.398,13.75-3.398c7.447,0,13.098,2.136,16.953,6.406
	c3.854,4.271,5.781,10.521,5.781,18.75V401.5h-24.297v-40.313c0-3.697-0.756-6.484-2.266-8.359c-1.512-1.875-3.75-2.813-6.719-2.813
	c-4.271,0-7.553,1.433-9.844,4.297c-2.293,2.865-3.438,7.031-3.438,12.5V401.5z M401.422,331.109v63.828
	c0,6.459-0.313,11.314-0.938,14.57c-0.625,3.254-1.641,6.236-3.047,8.945c-2.918,5.625-7.162,9.883-12.734,12.773
	c-5.574,2.891-12.318,4.336-20.234,4.336c-4.74,0-9.545-0.521-14.414-1.563c-4.871-1.043-10.039-2.656-15.508-4.844l-0.313-19.531
	c5.207,2.813,9.947,4.883,14.219,6.211c4.27,1.328,8.281,1.992,12.031,1.992c5.469,0,9.713-1.303,12.734-3.906
	c3.02-2.605,4.531-6.277,4.531-11.016v-4.766c-2.813,1.771-5.6,3.074-8.359,3.906c-2.762,0.832-5.678,1.25-8.75,1.25
	c-9.949,0-17.982-3.332-24.102-10c-6.121-6.666-9.18-15.442-9.18-26.328c0-11.301,3.463-20.664,10.391-28.086
	c6.926-7.422,15.676-11.133,26.25-11.133c2.447,0,5,0.339,7.656,1.016c2.656,0.678,5.598,1.719,8.828,3.125L401.422,331.109z
	 M376.891,349c-1.459-0.833-2.852-1.432-4.18-1.797c-1.328-0.364-2.645-0.547-3.945-0.547c-4.637,0-8.543,1.941-11.719,5.82
	c-3.178,3.881-4.766,8.764-4.766,14.648c0,5.521,1.393,10.117,4.18,13.789c2.785,3.672,6.184,5.508,10.195,5.508
	c1.563,0,3.215-0.442,4.961-1.328c1.744-0.885,3.502-2.188,5.273-3.906V349z M489.938,331.109v43.984
	c0,5.521,0.104,10.156,0.313,13.906c0.207,3.75,0.52,6.953,0.938,9.609l-22.734,6.25l-2.188-6.719
	c-3.074,2.293-6.082,3.984-9.023,5.078c-2.943,1.094-6.029,1.641-9.258,1.641c-9.063,0-16.68-3.619-22.852-10.859
	c-6.172-7.239-9.258-16.25-9.258-27.031c0-11.354,3.463-20.729,10.391-28.125c6.926-7.395,15.676-11.094,26.25-11.094
	c2.447,0,5,0.339,7.656,1.016c2.656,0.678,5.598,1.719,8.828,3.125L489.938,331.109z M465.406,349
	c-1.459-0.833-2.852-1.432-4.18-1.797c-1.328-0.364-2.645-0.547-3.945-0.547c-4.637,0-8.543,1.941-11.719,5.82
	c-3.178,3.881-4.766,8.764-4.766,14.648c0,5.521,1.393,10.117,4.18,13.789c2.785,3.672,6.184,5.508,10.195,5.508
	c1.613,0,3.268-0.43,4.961-1.289c1.691-0.859,3.449-2.174,5.273-3.945V349z M533.141,401.5h-24.453v-70.391h22.578v11.797
	c3.75-4.635,7.734-8.086,11.953-10.352s8.801-3.398,13.75-3.398c7.447,0,13.098,2.136,16.953,6.406
	c3.854,4.271,5.781,10.521,5.781,18.75V401.5h-24.297v-40.313c0-3.697-0.756-6.484-2.266-8.359c-1.512-1.875-3.75-2.813-6.719-2.813
	c-4.271,0-7.553,1.433-9.844,4.297c-2.293,2.865-3.438,7.031-3.438,12.5V401.5z M640.25,344.859c0-8.385,1.445-16.236,4.336-23.555
	c2.891-7.317,7.148-13.867,12.773-19.648c5.313-5.52,11.484-9.752,18.516-12.695c7.031-2.942,14.4-4.414,22.109-4.414
	c7.707,0,15.09,1.484,22.148,4.453c7.057,2.969,13.32,7.24,18.789,12.813c5.52,5.574,9.699,12.019,12.539,19.336
	c2.838,7.318,4.258,15.222,4.258,23.711c0,7.084-0.99,13.75-2.969,20c-1.98,6.25-4.922,11.953-8.828,17.109
	c-5.521,7.344-12.305,13.047-20.352,17.109s-16.576,6.094-25.586,6.094c-7.656,0-14.988-1.484-21.992-4.453
	c-7.006-2.969-13.217-7.239-18.633-12.813c-5.625-5.781-9.883-12.305-12.773-19.57S640.25,353.245,640.25,344.859z M668.063,344.859
	c0,9.844,2.877,18.086,8.633,24.727c5.754,6.641,12.852,9.961,21.289,9.961c8.488,0,15.598-3.307,21.328-9.922
	c5.729-6.614,8.594-14.869,8.594-24.766c0-9.947-2.865-18.242-8.594-24.883c-5.73-6.641-12.84-9.961-21.328-9.961
	c-8.438,0-15.535,3.32-21.289,9.961C670.94,326.617,668.063,334.912,668.063,344.859z M795.719,401.5h-24.453v-70.391h22.578v11.797
	c3.75-4.635,7.734-8.086,11.953-10.352s8.801-3.398,13.75-3.398c7.447,0,13.098,2.136,16.953,6.406
	c3.854,4.271,5.781,10.521,5.781,18.75V401.5h-24.297v-40.313c0-3.697-0.756-6.484-2.266-8.359c-1.512-1.875-3.75-2.813-6.719-2.813
	c-4.271,0-7.553,1.433-9.844,4.297c-2.293,2.865-3.438,7.031-3.438,12.5V401.5z M884.391,401.5h-24.766V290.015l24.766-3.359V401.5z
	 M901.031,304.859c0-3.75,1.301-6.926,3.906-9.531c2.604-2.604,5.781-3.906,9.531-3.906c3.801,0,6.992,1.289,9.57,3.867
	s3.867,5.769,3.867,9.57c0,3.75-1.303,6.953-3.906,9.609c-2.605,2.656-5.781,3.984-9.531,3.984c-3.646,0-6.797-1.34-9.453-4.023
	C902.36,311.748,901.031,308.558,901.031,304.859z M926.969,401.5h-24.766v-70.391l24.766-3.359V401.5z M969.86,401.5h-24.453
	v-70.391h22.578v11.797c3.75-4.635,7.734-8.086,11.953-10.352s8.801-3.398,13.75-3.398c7.447,0,13.098,2.136,16.953,6.406
	c3.854,4.271,5.781,10.521,5.781,18.75V401.5h-24.297v-40.313c0-3.697-0.756-6.484-2.266-8.359c-1.512-1.875-3.75-2.813-6.719-2.813
	c-4.271,0-7.553,1.433-9.844,4.297c-2.293,2.865-3.438,7.031-3.438,12.5V401.5z M1100.016,376.344l-2.734,21.641
	c-4.793,2.293-9.506,3.984-14.141,5.078c-4.637,1.094-9.324,1.641-14.063,1.641c-11.719,0-21.172-3.371-28.359-10.117
	c-7.188-6.744-10.781-15.533-10.781-26.367c0-11.301,3.932-20.846,11.797-28.633c7.863-7.786,17.422-11.68,28.672-11.68
	c9.635,0,17.539,2.852,23.711,8.555s9.258,13.086,9.258,22.148c0,1.406-0.105,3.646-0.313,6.719l-0.078,0.469l-2.188,3.203
	l-48.047,1.328c0.363,4.74,2.344,8.582,5.938,11.523c3.594,2.943,8.125,4.414,13.594,4.414c3.854,0,8.137-0.833,12.852-2.5
	C1089.846,382.099,1094.807,379.625,1100.016,376.344z M1053.297,359.703l30.547-0.938v-1.094c0-3.697-1.303-6.731-3.906-9.102
	c-2.605-2.369-5.887-3.555-9.844-3.555c-4.428,0-8.125,1.289-11.094,3.867S1054.129,355.068,1053.297,359.703z"/>
</svg>
