<?xml version="1.0" encoding="utf-8"?>
<!-- Generator: Adobe Illustrator 16.0.0, SVG Export Plug-In . SVG Version: 6.00 Build 0)  -->
<!DOCTYPE svg PUBLIC "-//W3C//DTD SVG 1.1//EN" "http://www.w3.org/Graphics/SVG/1.1/DTD/svg11.dtd">
<svg version="1.1" id="Layer_1" xmlns="http://www.w3.org/2000/svg" xmlns:xlink="http://www.w3.org/1999/xlink" x="0px" y="0px"
	 width="612px" height="792px" viewBox="0 0 612 792" enable-background="new 0 0 612 792" xml:space="preserve">
<g>
	
		<linearGradient id="SVGID_1_" gradientUnits="userSpaceOnUse" x1="2.7004" y1="763.0554" x2="13.9497" y2="778.7211" gradientTransform="matrix(38.4906 0 0 38.4906 -10.3677 -29248.8125)">
		<stop  offset="0" style="stop-color:#04BEFE"/>
		<stop  offset="0.5044" style="stop-color:#19A6F1"/>
		<stop  offset="1" style="stop-color:#318BE3"/>
	</linearGradient>
	<path fill="url(#SVGID_1_)" d="M587.056,289.849l-173.207-26.943l-76.981-165.51c-3.849-11.547-15.396-19.245-30.792-19.245
		c-11.547,0-23.095,7.698-30.792,19.245l-76.981,165.51L28.944,289.849c-11.548,0-23.095,11.547-26.943,23.094
		c-3.85,11.548,0,26.943,7.698,34.642l127.019,127.02L105.924,655.51c-3.849,11.547,3.85,26.943,11.548,34.642
		c11.547,7.698,23.094,7.698,34.642,3.849l153.962-84.679L460.037,694c3.85,3.85,11.547,3.85,15.396,3.85
		c7.698,0,15.396-3.85,19.245-7.698c11.547-7.698,15.396-19.245,11.547-34.642l-30.792-180.905l127.019-127.02
		c7.698-7.698,11.548-23.094,7.698-34.642C610.151,297.548,598.604,289.849,587.056,289.849z"/>
</g>
</svg>
